<svg aria-hidden="true" style="position: absolute; width: 0; height: 0; overflow: hidden;" version="1.1" xmlns="http://www.w3.org/2000/svg" xmlns:xlink="http://www.w3.org/1999/xlink">
<defs>
<symbol id="now" viewBox="0 0 122 32">
<path  d="M21.752 0c3.19 0 5.743 1.004 7.661 3.011s2.876 4.713 2.876 8.118v18.332h-9.516v-15.59c0-1.649-0.448-2.948-1.344-3.898s-2.097-1.425-3.602-1.425c-1.577 0.036-2.876 0.556-3.898 1.559s-1.622 2.33-1.801 3.978v15.375h-9.569v-29.084h9.569v4.731c1.039-1.684 2.374-2.957 4.005-3.817s3.503-1.29 5.618-1.29zM53.095 0.054c3.154 0 5.931 0.618 8.333 1.855s4.265 2.975 5.591 5.215 1.989 4.829 1.989 7.768c0 2.975-0.663 5.582-1.989 7.822s-3.19 3.978-5.591 5.215c-2.401 1.236-5.179 1.855-8.333 1.855s-5.932-0.618-8.333-1.855-4.256-2.975-5.564-5.215c-1.308-2.24-1.962-4.847-1.962-7.822 0-2.939 0.654-5.528 1.962-7.768s3.163-3.978 5.564-5.215 5.179-1.855 8.333-1.855zM53.095 7.795c-1.864 0-3.369 0.663-4.516 1.989s-1.72 3.064-1.72 5.215c0 2.186 0.573 3.942 1.72 5.268s2.652 1.989 4.516 1.989c1.9 0 3.423-0.663 4.57-1.989s1.72-3.082 1.72-5.268c0-2.15-0.582-3.889-1.747-5.215s-2.679-1.989-4.543-1.989zM69.868 0.376h9.731l5.806 19.676 5.699-19.676h9.139l5.752 19.676 5.806-19.676h9.354l-10.644 29.084h-9.462l-5.537-17.956-5.591 17.956h-9.462l-10.591-29.084z"></path>
</symbol>
<symbol id="cross" viewBox="0 0 32 32">
<path fill="#fff" style="fill: var(--color2, #fff)" d="M16.168 19.515l11.185 11.336c1.063 1.077 2.786 1.077 3.849-0.001s1.063-2.824 0-3.901l-11.185-11.336 10.423-10.563c1.063-1.077 1.063-2.824-0.001-3.901s-2.786-1.077-3.849 0l-10.422 10.563-10.759-10.904c-1.063-1.077-2.786-1.077-3.849 0s-1.063 2.824 0 3.901l10.759 10.904-11.522 11.677c-1.063 1.077-1.063 2.824 0 3.901s2.786 1.077 3.849 0l11.522-11.677z"></path>
</symbol>
<symbol id="Oval" viewBox="0 0 32 32">
<path  d="M16 32c8.837 0 16-7.163 16-16s-7.163-16-16-16c-8.837 0-16 7.163-16 16s7.163 16 16 16z"></path>
</symbol>
<symbol id="arrow-up" viewBox="0 0 53 32">
<path fill="#fff" style="fill: var(--color2, #fff)" d="M51.627 30.319h-0.001c-1.1 1.084-2.564 1.681-4.121 1.681s-3.021-0.597-4.121-1.681l-16.718-16.461-16.716 16.465c-2.273 2.234-5.969 2.234-8.238 0.001-1.102-1.083-1.71-2.523-1.711-4.056-0.002-1.536 0.606-2.979 1.71-4.066l20.838-20.523c1.1-1.083 2.562-1.679 4.118-1.679 1.563 0 3.028 0.598 4.121 1.68l20.84 20.522c1.1 1.084 1.707 2.525 1.707 4.058s-0.607 2.975-1.707 4.058z"></path>
</symbol>
<symbol id="arrow-down" viewBox="0 0 53 32">
<path fill="#fff" style="fill: var(--color2, #fff)" d="M51.627 1.681c-1.1-1.085-2.565-1.681-4.122-1.681s-3.021 0.597-4.121 1.681l-16.718 16.461-16.716-16.465c-2.273-2.234-5.969-2.234-8.238-0.001-1.102 1.083-1.71 2.523-1.711 4.056-0.002 1.536 0.606 2.979 1.71 4.066l20.838 20.523c1.1 1.083 2.562 1.679 4.118 1.679 1.563 0 3.028-0.598 4.121-1.68l20.84-20.522c1.1-1.084 1.707-2.525 1.707-4.058s-0.607-2.975-1.707-4.058z"></path>
</symbol>
<symbol id="arrow-right" viewBox="0 0 32 32">
<path d="M8.62 1.509c0.833-0.833 2.184-0.833 3.017 0l12.57 12.57c0.833 0.833 0.833 2.184 0 3.017s-2.184 0.833-3.017 0l-12.57-12.57c-0.833-0.833-0.833-2.184 0-3.017z"></path>
<path d="M8.62 29.722c-0.833-0.833-0.833-2.184 0-3.017l12.068-12.068c0.833-0.833 2.184-0.833 3.017 0s0.833 2.184 0 3.017l-12.068 12.068c-0.833 0.833-2.184 0.833-3.017 0z"></path>
</symbol>

<symbol id="logo" viewBox="0 0 32 32">
<path fill="none" stroke="#3dcf8e"  stroke-linejoin="miter" stroke-linecap="butt" stroke-miterlimit="4" stroke-width="12" d="M26 16c0 5.523-4.477 10-10 10s-10-4.477-10-10c0-5.523 4.477-10 10-10s10 4.477 10 10z"></path>
</symbol>

<symbol id="list" viewBox="0 0 43 32">
<path fill="#fff" style="fill: var(--color2, #fff)" d="M39.956 31.4h-28.121c-1.159 0-2.098-0.939-2.098-2.099s0.939-2.098 2.098-2.098h28.12c1.159 0 2.098 0.939 2.098 2.098s-0.939 2.099-2.098 2.099z"></path>
<path fill="#fff" style="fill: var(--color2, #fff)" d="M39.956 18.229h-28.121c-1.159 0-2.098-0.939-2.098-2.098s0.939-2.098 2.098-2.098h28.12c1.159 0 2.098 0.939 2.098 2.098s-0.939 2.098-2.098 2.098z"></path>
<path fill="#fff" style="fill: var(--color2, #fff)" d="M39.956 5.057h-28.121c-1.159 0-2.098-0.939-2.098-2.098s0.939-2.098 2.098-2.098h28.12c1.159 0 2.098 0.939 2.098 2.098s-0.939 2.098-2.098 2.098z"></path>
<path fill="#fff" style="fill: var(--color2, #fff)" d="M2.818 5.94c1.556 0 2.818-1.262 2.818-2.818s-1.262-2.818-2.818-2.818c-1.556 0-2.818 1.262-2.818 2.818s1.262 2.818 2.818 2.818z"></path>
<path fill="#fff" style="fill: var(--color2, #fff)" d="M2.818 18.949c1.556 0 2.818-1.262 2.818-2.818s-1.262-2.818-2.818-2.818c-1.556 0-2.818 1.262-2.818 2.818s1.262 2.818 2.818 2.818z"></path>
<path fill="#fff" style="fill: var(--color2, #fff)" d="M2.818 31.958c1.556 0 2.818-1.262 2.818-2.818s-1.262-2.818-2.818-2.818c-1.556 0-2.818 1.262-2.818 2.818s1.262 2.818 2.818 2.818z"></path>
</symbol>


</defs>
</svg>
